<svg width="24" height="24" viewBox="0 0 24 24" fill="none" xmlns="http://www.w3.org/2000/svg">
<path d="M11.1292 3.30043L1.63424 19.7479C1.25174 20.4154 1.73174 21.2554 2.50424 21.2554H21.4942C22.2667 21.2554 22.7467 20.4229 22.3642 19.7479L12.8692 3.30043C12.4792 2.63293 11.5192 2.63293 11.1292 3.30043Z" fill="#FFCC00"/>
<path d="M10.9492 15.0291C10.9492 15.6066 11.4142 16.0791 11.9992 16.0791C12.5842 16.0791 13.0492 15.6066 13.0492 15.0216V8.15156C13.0492 7.57406 12.5842 7.10156 11.9992 7.10156C11.4217 7.10156 10.9492 7.56656 10.9492 8.15156V15.0291Z" fill="white"/>
<path d="M13.0492 18.0141C13.0492 18.594 12.5791 19.0641 11.9992 19.0641C11.4193 19.0641 10.9492 18.594 10.9492 18.0141C10.9492 17.4342 11.4193 16.9641 11.9992 16.9641C12.5791 16.9641 13.0492 17.4342 13.0492 18.0141Z" fill="white"/>
</svg>
